Coordinates
version=1
nRows=12
nColumns=23
inDegrees=yes

Units are S.I. units (second, meters, Newtons, ...)
If the header above contains a line with 'inDegrees', this indicates whether rotational values are in degrees (yes) or radians (no).

endheader
time	pelvis_tilt	pelvis_list	pelvis_rotation	pelvis_tx	pelvis_ty	pelvis_tz	hip_flexion_r	hip_adduction_r	hip_rotation_r	knee_angle_r	knee_angle_r_beta	ankle_angle_r	subtalar_angle_r	mtp_angle_r	hip_flexion_l	hip_adduction_l	hip_rotation_l	knee_angle_l	knee_angle_l_beta	ankle_angle_l	subtalar_angle_l	mtp_angle_l
     15.00000000	     -3.37001452	      7.78690585	     11.45209243	      2.15653955	      0.93694990	      0.96946734	     -1.24113732	    -13.49484610	    -17.35893285	     90.56354608	      1.58063206	    -15.11075224	    -25.33366261	      0.00000000	     29.41836156	     13.74758821	     -0.54579710	     33.85171085	      0.59082381	      5.12834343	     -9.14000760	      0.00000000
     15.00666667	     -3.65873211	      7.88016396	     12.41413217	      2.15442227	      0.93251207	      0.96814123	      1.19124670	    -14.35055756	    -17.58280915	     93.43639209	      1.63077268	    -14.37600856	    -25.33267005	      0.00000000	     29.46287730	     14.33511468	      0.56012575	     36.99034601	      0.64560333	      6.81004626	    -10.35160660	      0.00000000
     15.01333333	     -3.90487876	      7.86197610	     13.27509025	      2.15233060	      0.92852396	      0.96685669	      3.71908957	    -15.14559044	    -17.65057340	     95.96320639	      1.67487391	    -13.66114140	    -25.28863082	      0.00000000	     29.20823791	     14.80156923	      1.81156480	     39.77684905	      0.69423698	      8.89604079	    -11.14568216	      0.00000000
     15.02000000	     -4.13030510	      7.80302406	     13.94254057	      2.15033169	      0.92508219	      0.96577286	      6.38952907	    -15.92862386	    -17.46086294	     98.14168107	      1.71289547	    -12.95881043	    -25.16833396	      0.00000000	     28.62582674	     15.13128191	      3.03326976	     42.07783110	      0.73439669	     11.18127608	    -11.67651006	      0.00000000
     15.02666667	     -4.27991533	      7.72923516	     14.34614677	      2.14845072	      0.92235001	      0.96499641	      9.16748387	    -16.64510983	    -16.94701724	     99.94421732	      1.74435566	    -12.27995362	    -24.97304318	      0.00000000	     27.63574500	     15.29680994	      4.17249656	     43.82125605	      0.76482520	     13.54624423	    -11.98514776	      0.00000000
     15.03333333	     -4.49647753	      7.64579660	     14.44178126	      2.14675628	      0.92016995	      0.96459689	     12.22622942	    -17.29511110	    -16.05426531	    101.38296208	      1.76946649	    -11.53948878	    -24.65486668	      0.00000000	     26.42060635	     15.27384173	      5.06872374	     45.00835955	      0.78554407	     15.80540484	    -12.04861431	      0.00000000
     15.04000000	     -4.55438630	      7.56196000	     14.28055264	      2.14531679	      0.91886851	      0.96458418	     15.22518418	    -17.75600766	    -14.92227852	    102.35686943	      1.78646438	    -10.85081917	    -24.32524154	      0.00000000	     24.73571119	     15.03215819	      5.76232285	     45.64524903	      0.79665988	     17.90103558	    -11.99621882	      0.00000000
     15.04666667	     -4.30887673	      7.34154232	     14.05553733	      2.14434030	      0.91879204	      0.96458708	     17.80741170	    -17.90785096	    -13.92524434	    102.71530264	      1.79272022	    -10.30824165	    -24.10643111	      0.00000000	     22.39709556	     14.57925945	      6.66420977	     45.71274326	      0.79783788	     19.68691470	    -12.08287439	      0.00000000
     15.05333333	     -4.24258205	      7.04915920	     13.73898781	      2.14369237	      0.91919518	      0.96477455	     20.57805559	    -17.86519608	    -12.87456610	    102.63303923	      1.79128446	     -9.71572029	    -23.80198173	      0.00000000	     20.00563387	     14.00148147	      7.46252666	     45.29344233	      0.79051970	     21.09303661	    -11.96972015	      0.00000000
     15.06000000	     -4.39477407	      6.93485123	     12.59506210	      2.14310636	      0.91938289	      0.96611134	     23.96989673	    -17.63501101	    -10.92227363	    102.41750178	      1.78752262	     -8.67147518	    -22.97263155	      0.00000000	     17.84820303	     13.14843564	      6.85633360	     44.60590745	      0.77851995	     22.44571566	    -11.28175483	      0.00000000
     15.06666667	     -4.31271715	      6.60791166	     11.68030041	      2.14308817	      0.92075437	      0.96709244	     26.70444514	    -17.06652858	     -9.54232180	    101.51390160	      1.77175182	     -7.86080131	    -22.47861785	      0.00000000	     15.12829888	     12.25832113	      6.85417620	     43.39336071	      0.75735702	     23.07324128	    -11.18093985	      0.00000000
     15.07333333	     -4.33801854	      6.22565166	     10.67782778	      2.14338771	      0.92242997	      0.96817196	     29.38835354	    -16.29853993	     -8.24231350	    100.20103182	      1.74883792	     -6.96135505	    -21.95094687	      0.00000000	     12.40503540	     11.31235721	      6.62909553	     41.87203263	      0.73080483	     23.23667661	    -10.96695854	      0.00000000
